<mxfile host="app.diagrams.net" modified="2021-02-25T05:20:49.253Z" agent="5.0 (Macintosh; Intel Mac OS X 10_15_7) AppleWebKit/537.36 (KHTML, like Gecko) Chrome/88.0.4324.182 Safari/537.36" etag="LL2cmJxnU_3Ytx6-jjCT" version="14.4.2" type="github">
  <diagram name="Page-1" id="74e2e168-ea6b-b213-b513-2b3c1d86103e">
    <mxGraphModel dx="1298" dy="731" grid="1" gridSize="10" guides="1" tooltips="1" connect="1" arrows="1" fold="1" page="1" pageScale="1" pageWidth="1100" pageHeight="850" background="#ffffff" math="0" shadow="0">
      <root>
        <mxCell id="0" />
        <mxCell id="1" parent="0" />
        <mxCell id="77e6c97f196da883-1" value="CreateChannel" style="swimlane;html=1;childLayout=stackLayout;startSize=20;rounded=0;shadow=0;labelBackgroundColor=none;strokeWidth=1;fontFamily=Verdana;fontSize=8;align=center;" parent="1" vertex="1">
          <mxGeometry x="70" y="40" width="1500" height="650" as="geometry" />
        </mxCell>
        <mxCell id="77e6c97f196da883-2" value="voice_engine" style="swimlane;html=1;startSize=20;" parent="77e6c97f196da883-1" vertex="1">
          <mxGeometry y="20" width="480" height="630" as="geometry" />
        </mxCell>
        <mxCell id="77e6c97f196da883-8" value="&lt;p class=&quot;p1&quot; style=&quot;margin: 0px ; font-stretch: normal ; font-size: 12px ; line-height: normal ; font-family: &amp;#34;menlo&amp;#34; ; color: rgb(15 , 104 , 160) ; background-color: rgb(255 , 255 , 255)&quot;&gt;&lt;span class=&quot;s1&quot; style=&quot;color: rgb(28 , 70 , 74)&quot;&gt;VoEBaseImpl&lt;/span&gt;&lt;span class=&quot;s2&quot; style=&quot;color: rgba(0 , 0 , 0 , 0.85)&quot;&gt;::&lt;/span&gt;CreateChannel&lt;/p&gt;" style="rounded=1;whiteSpace=wrap;html=1;shadow=0;labelBackgroundColor=none;strokeWidth=1;fontFamily=Verdana;fontSize=8;align=center;" parent="77e6c97f196da883-2" vertex="1">
          <mxGeometry x="20" y="65" width="370" height="60" as="geometry" />
        </mxCell>
        <mxCell id="77e6c97f196da883-9" value="&lt;p class=&quot;p1&quot; style=&quot;margin: 0px ; font-stretch: normal ; font-size: 12px ; line-height: normal ; font-family: &amp;#34;menlo&amp;#34; ; color: rgb(15 , 104 , 160) ; background-color: rgb(255 , 255 , 255)&quot;&gt;&lt;span class=&quot;s1&quot; style=&quot;color: rgb(28 , 70 , 74)&quot;&gt;Channel&lt;/span&gt;&lt;span class=&quot;s2&quot; style=&quot;color: rgba(0 , 0 , 0 , 0.85)&quot;&gt;::&lt;/span&gt;SetEngineInformation(&lt;span style=&quot;color: rgb(28 , 70 , 74)&quot;&gt;Statistics&lt;/span&gt;&lt;span class=&quot;s1&quot; style=&quot;color: rgba(0 , 0 , 0 , 0.85)&quot;&gt;&amp;amp;,&amp;nbsp;&lt;/span&gt;&lt;span style=&quot;color: rgb(28 , 70 , 74)&quot;&gt;OutputMixer&lt;/span&gt;&lt;span class=&quot;s1&quot; style=&quot;color: rgba(0 , 0 , 0 , 0.85)&quot;&gt;&amp;amp;,&amp;nbsp;&lt;/span&gt;&lt;span style=&quot;color: rgb(28 , 70 , 74)&quot;&gt;&amp;nbsp; &amp;nbsp; &amp;nbsp; &amp;nbsp;voe&lt;/span&gt;&lt;span class=&quot;s1&quot; style=&quot;color: rgba(0 , 0 , 0 , 0.85)&quot;&gt;::&lt;/span&gt;&lt;span style=&quot;color: rgb(28 , 70 , 74)&quot;&gt;TransmitMixer&lt;/span&gt;&lt;span class=&quot;s1&quot; style=&quot;color: rgba(0 , 0 , 0 , 0.85)&quot;&gt;&amp;amp;,&amp;nbsp;&lt;/span&gt;&lt;span style=&quot;color: rgb(28 , 70 , 74)&quot;&gt;ProcessThread&lt;/span&gt;&lt;span class=&quot;s1&quot; style=&quot;color: rgba(0 , 0 , 0 , 0.85)&quot;&gt;&amp;amp;,&amp;nbsp;&lt;/span&gt;&lt;span style=&quot;color: rgb(28 , 70 , 74)&quot;&gt;AudioDeviceModule&lt;/span&gt;&lt;span class=&quot;s1&quot; style=&quot;color: rgba(0 , 0 , 0 , 0.85)&quot;&gt;&amp;amp;,&amp;nbsp;&lt;/span&gt;&lt;/p&gt;&lt;p class=&quot;p1&quot; style=&quot;margin: 0px ; font-stretch: normal ; font-size: 12px ; line-height: normal ; font-family: &amp;#34;menlo&amp;#34; ; color: rgb(15 , 104 , 160) ; background-color: rgb(255 , 255 , 255)&quot;&gt;&lt;span style=&quot;color: rgb(28 , 70 , 74)&quot;&gt;&amp;nbsp; &amp;nbsp; &amp;nbsp; &amp;nbsp; &amp;nbsp; &amp;nbsp; &amp;nbsp; VoiceEngineObserver&lt;/span&gt;&lt;span class=&quot;s1&quot; style=&quot;color: rgba(0 , 0 , 0 , 0.85)&quot;&gt;*,&amp;nbsp;&lt;/span&gt;&lt;span style=&quot;color: rgb(28 , 70 , 74)&quot;&gt;CriticalSectionWrapper&lt;/span&gt;&lt;span class=&quot;s1&quot; style=&quot;color: rgba(0 , 0 , 0 , 0.85)&quot;&gt;*&lt;/span&gt;)&lt;/p&gt;" style="rounded=1;whiteSpace=wrap;html=1;shadow=0;labelBackgroundColor=none;strokeWidth=1;fontFamily=Verdana;fontSize=8;align=center;" parent="77e6c97f196da883-2" vertex="1">
          <mxGeometry x="20" y="155" width="460" height="85" as="geometry" />
        </mxCell>
        <mxCell id="77e6c97f196da883-10" value="&lt;p class=&quot;p1&quot; style=&quot;margin: 0px ; font-stretch: normal ; font-size: 12px ; line-height: normal ; font-family: &amp;#34;menlo&amp;#34; ; color: rgb(28 , 70 , 74) ; background-color: rgb(255 , 255 , 255)&quot;&gt;Channel&lt;span class=&quot;s1&quot; style=&quot;color: rgba(0 , 0 , 0 , 0.85)&quot;&gt;::&lt;/span&gt;&lt;span class=&quot;s2&quot; style=&quot;color: rgb(15 , 104 , 160)&quot;&gt;Init(){&lt;/span&gt;&lt;/p&gt;&lt;p class=&quot;p1&quot; style=&quot;margin: 0px ; font-stretch: normal ; font-size: 12px ; line-height: normal ; font-family: &amp;#34;menlo&amp;#34; ; color: rgb(28 , 70 , 74) ; background-color: rgb(255 , 255 , 255)&quot;&gt;&lt;span class=&quot;s2&quot; style=&quot;color: rgb(15 , 104 , 160)&quot;&gt;&lt;/span&gt;&lt;/p&gt;&lt;p class=&quot;p1&quot; style=&quot;margin: 0px ; font-stretch: normal ; font-size: 12px ; line-height: normal ; font-family: &amp;#34;menlo&amp;#34; ; color: rgb(93 , 108 , 121) ; background-color: rgb(255 , 255 , 255)&quot;&gt;//ACM initialization&lt;/p&gt;&lt;p class=&quot;p1&quot; style=&quot;margin: 0px ; font-stretch: normal ; font-size: 12px ; line-height: normal ; font-family: &amp;#34;menlo&amp;#34; ; color: rgb(50 , 109 , 116) ; background-color: rgb(255 , 255 , 255)&quot;&gt;_audioCodingModule&lt;span class=&quot;s1&quot; style=&quot;color: rgba(0 , 0 , 0 , 0.85)&quot;&gt;.&lt;/span&gt;InitializeReceiver&lt;span class=&quot;s1&quot; style=&quot;color: rgba(0 , 0 , 0 , 0.85)&quot;&gt;()&lt;/span&gt;&lt;/p&gt;&lt;p class=&quot;p1&quot; style=&quot;margin: 0px ; font-stretch: normal ; font-size: 12px ; line-height: normal ; font-family: &amp;#34;menlo&amp;#34; ; color: rgb(50 , 109 , 116) ; background-color: rgb(255 , 255 , 255)&quot;&gt;&lt;span class=&quot;s1&quot; style=&quot;color: rgba(0 , 0 , 0 , 0.85)&quot;&gt;&lt;/span&gt;&lt;/p&gt;&lt;p class=&quot;p1&quot; style=&quot;margin: 0px ; font-stretch: normal ; font-size: 12px ; line-height: normal ; font-family: &amp;#34;menlo&amp;#34; ; color: rgb(28 , 70 , 74) ; background-color: rgb(255 , 255 , 255)&quot;&gt;AudioCodingModuleImpl&lt;span class=&quot;s1&quot; style=&quot;color: rgba(0 , 0 , 0 , 0.85)&quot;&gt;::SetReceiveVADStatus(bool)&lt;/span&gt;&lt;span style=&quot;color: rgb(15 , 104 , 160)&quot;&gt;}&lt;/span&gt;&lt;/p&gt;&lt;p class=&quot;p1&quot; style=&quot;margin: 0px ; font-stretch: normal ; font-size: 12px ; line-height: normal ; font-family: &amp;#34;menlo&amp;#34; ; color: rgb(28 , 70 , 74) ; background-color: rgb(255 , 255 , 255)&quot;&gt;AudioCodingModuleImpl&lt;span class=&quot;s1&quot; style=&quot;color: rgba(0 , 0 , 0 , 0.85)&quot;&gt;::&lt;/span&gt;&lt;span class=&quot;s2&quot; style=&quot;color: rgb(15 , 104 , 160)&quot;&gt;InitializeSender&lt;/span&gt;&lt;span class=&quot;s1&quot; style=&quot;color: rgba(0 , 0 , 0 , 0.85)&quot;&gt;()&lt;/span&gt;&lt;/p&gt;&lt;p class=&quot;p1&quot; style=&quot;margin: 0px ; font-stretch: normal ; font-size: 12px ; line-height: normal ; font-family: &amp;#34;menlo&amp;#34; ; color: rgb(28 , 70 , 74) ; background-color: rgb(255 , 255 , 255)&quot;&gt;&lt;span class=&quot;s1&quot; style=&quot;color: rgba(0 , 0 , 0 , 0.85)&quot;&gt;//&lt;/span&gt;&lt;span style=&quot;color: rgb(93 , 108 , 121) ; font-family: &amp;#34;menlo&amp;#34;&quot;&gt;RTP/RTCP module initialization&lt;/span&gt;&lt;/p&gt;&lt;p class=&quot;p1&quot; style=&quot;margin: 0px ; font-stretch: normal ; font-size: 12px ; line-height: normal ; font-family: &amp;#34;menlo&amp;#34; ; color: rgb(28 , 70 , 74) ; background-color: rgb(255 , 255 , 255)&quot;&gt;ModuleRtpRtcpImpl&lt;span class=&quot;s1&quot; style=&quot;color: rgba(0 , 0 , 0 , 0.85)&quot;&gt;::&lt;/span&gt;&lt;span class=&quot;s2&quot; style=&quot;color: rgb(15 , 104 , 160)&quot;&gt;InitReceiver&lt;/span&gt;&lt;span class=&quot;s1&quot; style=&quot;color: rgba(0 , 0 , 0 , 0.85)&quot;&gt;()&lt;/span&gt;&lt;/p&gt;&lt;p class=&quot;p1&quot; style=&quot;margin: 0px ; font-stretch: normal ; font-size: 12px ; line-height: normal ; font-family: &amp;#34;menlo&amp;#34; ; color: rgb(28 , 70 , 74) ; background-color: rgb(255 , 255 , 255)&quot;&gt;&lt;span class=&quot;s1&quot; style=&quot;color: rgba(0 , 0 , 0 , 0.85)&quot;&gt;&lt;/span&gt;&lt;/p&gt;&lt;p class=&quot;p1&quot; style=&quot;margin: 0px ; font-stretch: normal ; font-size: 12px ; line-height: normal ; font-family: &amp;#34;menlo&amp;#34; ; color: rgb(28 , 70 , 74) ; background-color: rgb(255 , 255 , 255)&quot;&gt;ModuleRtpRtcpImpl&lt;span class=&quot;s1&quot; style=&quot;color: rgba(0 , 0 , 0 , 0.85)&quot;&gt;::&lt;/span&gt;&lt;span class=&quot;s2&quot; style=&quot;color: rgb(15 , 104 , 160)&quot;&gt;InitSender&lt;/span&gt;&lt;span class=&quot;s1&quot; style=&quot;color: rgba(0 , 0 , 0 , 0.85)&quot;&gt;()&lt;/span&gt;&lt;/p&gt;&lt;p class=&quot;p1&quot; style=&quot;margin: 0px ; font-stretch: normal ; font-size: 12px ; line-height: normal ; font-family: &amp;#34;menlo&amp;#34; ; color: rgb(28 , 70 , 74) ; background-color: rgb(255 , 255 , 255)&quot;&gt;&lt;span class=&quot;s1&quot; style=&quot;color: rgba(0 , 0 , 0 , 0.85)&quot;&gt;//&lt;/span&gt;&lt;span style=&quot;color: rgb(93 , 108 , 121) ; font-family: &amp;#34;menlo&amp;#34;&quot;&gt;Register all permanent callbacks&lt;/span&gt;&lt;/p&gt;&lt;p class=&quot;p1&quot; style=&quot;margin: 0px ; font-stretch: normal ; font-size: 12px ; line-height: normal ; font-family: &amp;#34;menlo&amp;#34; ; color: rgb(15 , 104 , 160) ; background-color: rgb(255 , 255 , 255)&quot;&gt;&lt;span class=&quot;s1&quot; style=&quot;color: rgb(28 , 70 , 74)&quot;&gt;RTPReceiver&lt;/span&gt;&lt;span class=&quot;s2&quot; style=&quot;color: rgba(0 , 0 , 0 , 0.85)&quot;&gt;::&lt;/span&gt;RegisterIncomingDataCallback&lt;span class=&quot;s2&quot; style=&quot;color: rgba(0 , 0 , 0 , 0.85)&quot;&gt;(&lt;/span&gt;&lt;span class=&quot;s1&quot; style=&quot;color: rgb(28 , 70 , 74)&quot;&gt;RtpData&lt;/span&gt;&lt;span class=&quot;s2&quot; style=&quot;color: rgba(0 , 0 , 0 , 0.85)&quot;&gt;* incomingDataCallback){&lt;/span&gt;&lt;span class=&quot;s1&quot; style=&quot;color: rgb(50 , 109 , 116)&quot;&gt;_cbRtpData&lt;/span&gt;&lt;span style=&quot;color: rgba(0 , 0 , 0 , 0.85)&quot;&gt; = incomingDataCallback;&lt;/span&gt;&lt;span style=&quot;color: rgba(0 , 0 , 0 , 0.85)&quot;&gt;}&lt;/span&gt;&lt;/p&gt;&lt;p class=&quot;p1&quot; style=&quot;margin: 0px ; font-stretch: normal ; font-size: 12px ; line-height: normal ; font-family: &amp;#34;menlo&amp;#34; ; color: rgba(0 , 0 , 0 , 0.85) ; background-color: rgb(255 , 255 , 255)&quot;&gt;&lt;span class=&quot;s1&quot; style=&quot;color: rgb(28 , 70 , 74)&quot;&gt;ModuleRtpRtcpImpl&lt;/span&gt;::&lt;span class=&quot;s2&quot; style=&quot;color: rgb(15 , 104 , 160)&quot;&gt;RegisterIncomingRTPCallback&lt;/span&gt;(&lt;span class=&quot;s1&quot; style=&quot;color: rgb(28 , 70 , 74)&quot;&gt;RtpFeedback&lt;/span&gt;* incomingMessagesCallback){&lt;span class=&quot;s1&quot; style=&quot;color: rgb(50 , 109 , 116)&quot;&gt;_cbRtpFeedback&lt;/span&gt; = incomingMessagesCallback;}&lt;/p&gt;&lt;p class=&quot;p1&quot; style=&quot;margin: 0px ; font-stretch: normal ; font-size: 12px ; line-height: normal ; font-family: &amp;#34;menlo&amp;#34; ; color: rgba(0 , 0 , 0 , 0.85) ; background-color: rgb(255 , 255 , 255)&quot;&gt;//&lt;span style=&quot;color: rgb(93 , 108 , 121) ; font-family: &amp;#34;menlo&amp;#34;&quot;&gt;Register all supported codecs to the receiving side of the&amp;nbsp;&lt;/span&gt;&lt;span style=&quot;color: rgb(93 , 108 , 121) ; font-family: &amp;#34;menlo&amp;#34;&quot;&gt;RTP/RTCP module&lt;/span&gt;&lt;/p&gt;&lt;p class=&quot;p1&quot; style=&quot;margin: 0px ; font-stretch: normal ; font-size: 12px ; line-height: normal ; font-family: &amp;#34;menlo&amp;#34; ; color: rgb(93 , 108 , 121) ; background-color: rgb(255 , 255 , 255)&quot;&gt;// Initialize the far end AP module&lt;/p&gt;" style="rounded=1;whiteSpace=wrap;html=1;shadow=0;labelBackgroundColor=none;strokeWidth=1;fontFamily=Verdana;fontSize=8;align=left;" parent="77e6c97f196da883-2" vertex="1">
          <mxGeometry x="17.5" y="300" width="445" height="300" as="geometry" />
        </mxCell>
        <mxCell id="77e6c97f196da883-27" style="edgeStyle=orthogonalEdgeStyle;rounded=1;html=1;labelBackgroundColor=none;startArrow=none;startFill=0;startSize=5;endArrow=classicThin;endFill=1;endSize=5;jettySize=auto;orthogonalLoop=1;strokeWidth=1;fontFamily=Verdana;fontSize=8;exitX=0.5;exitY=1;exitDx=0;exitDy=0;" parent="77e6c97f196da883-2" source="77e6c97f196da883-8" target="77e6c97f196da883-9" edge="1">
          <mxGeometry relative="1" as="geometry">
            <Array as="points">
              <mxPoint x="205" y="125" />
              <mxPoint x="205" y="125" />
            </Array>
          </mxGeometry>
        </mxCell>
        <mxCell id="107ba76e4e335f99-5" style="edgeStyle=orthogonalEdgeStyle;rounded=1;html=1;labelBackgroundColor=none;startArrow=none;startFill=0;startSize=5;endArrow=classicThin;endFill=1;endSize=5;jettySize=auto;orthogonalLoop=1;strokeWidth=1;fontFamily=Verdana;fontSize=8;exitX=0.402;exitY=1;exitDx=0;exitDy=0;exitPerimeter=0;" parent="77e6c97f196da883-2" source="77e6c97f196da883-9" edge="1">
          <mxGeometry relative="1" as="geometry">
            <Array as="points">
              <mxPoint x="205" y="290" />
              <mxPoint x="205" y="290" />
            </Array>
            <mxPoint x="205" y="300" as="targetPoint" />
          </mxGeometry>
        </mxCell>
        <mxCell id="77e6c97f196da883-33" style="edgeStyle=orthogonalEdgeStyle;rounded=1;html=1;labelBackgroundColor=none;startArrow=none;startFill=0;startSize=5;endArrow=classicThin;endFill=1;endSize=5;jettySize=auto;orthogonalLoop=1;strokeWidth=1;fontFamily=Verdana;fontSize=8;exitX=1.005;exitY=0.141;exitDx=0;exitDy=0;exitPerimeter=0;" parent="77e6c97f196da883-1" source="77e6c97f196da883-10" target="77e6c97f196da883-15" edge="1">
          <mxGeometry relative="1" as="geometry">
            <mxPoint x="420" y="360" as="sourcePoint" />
          </mxGeometry>
        </mxCell>
        <mxCell id="77e6c97f196da883-39" style="edgeStyle=orthogonalEdgeStyle;rounded=1;html=1;labelBackgroundColor=none;startArrow=none;startFill=0;startSize=5;endArrow=classicThin;endFill=1;endSize=5;jettySize=auto;orthogonalLoop=1;strokeWidth=1;fontFamily=Verdana;fontSize=8;exitX=1.002;exitY=0.8;exitDx=0;exitDy=0;exitPerimeter=0;entryX=0;entryY=0.5;entryDx=0;entryDy=0;" parent="77e6c97f196da883-1" source="77e6c97f196da883-10" target="77e6c97f196da883-19" edge="1">
          <mxGeometry relative="1" as="geometry">
            <mxPoint x="1100" y="690" as="sourcePoint" />
            <Array as="points">
              <mxPoint x="840" y="560" />
              <mxPoint x="840" y="575" />
            </Array>
          </mxGeometry>
        </mxCell>
        <mxCell id="77e6c97f196da883-3" value="NETEQ" style="swimlane;html=1;startSize=20;" parent="77e6c97f196da883-1" vertex="1">
          <mxGeometry x="480" y="20" width="270" height="630" as="geometry" />
        </mxCell>
        <mxCell id="77e6c97f196da883-15" value="&lt;p class=&quot;p1&quot; style=&quot;margin: 0px ; font-stretch: normal ; font-size: 12px ; line-height: normal ; font-family: &amp;#34;menlo&amp;#34; ; color: rgb(15 , 104 , 160) ; background-color: rgb(255 , 255 , 255)&quot;&gt;&lt;span class=&quot;s1&quot; style=&quot;color: rgb(28 , 70 , 74)&quot;&gt;ACMNetEQ&lt;/span&gt;&lt;span class=&quot;s2&quot; style=&quot;color: rgba(0 , 0 , 0 , 0.85)&quot;&gt;::&lt;/span&gt;SetVADStatus(bool)&lt;/p&gt;" style="rounded=1;whiteSpace=wrap;html=1;shadow=0;labelBackgroundColor=none;strokeWidth=1;fontFamily=Verdana;fontSize=8;align=center;" parent="77e6c97f196da883-3" vertex="1">
          <mxGeometry x="20" y="290" width="220" height="40" as="geometry" />
        </mxCell>
        <mxCell id="TNquvcSm8Xy5EXfFVT4R-1" value="&lt;p class=&quot;p1&quot; style=&quot;margin: 0px ; font-stretch: normal ; font-size: 12px ; line-height: normal ; font-family: &amp;#34;menlo&amp;#34; ; color: rgb(15 , 104 , 160) ; background-color: rgb(255 , 255 , 255)&quot;&gt;&lt;span class=&quot;s1&quot; style=&quot;color: rgb(28 , 70 , 74)&quot;&gt;ACMNetEQ&lt;/span&gt;&lt;span class=&quot;s2&quot; style=&quot;color: rgba(0 , 0 , 0 , 0.85)&quot;&gt;::&lt;/span&gt;EnableVADByIdxSafe(idx)&lt;/p&gt;" style="whiteSpace=wrap;html=1;rounded=1;shadow=0;fontFamily=Verdana;fontSize=8;strokeWidth=1;" vertex="1" parent="77e6c97f196da883-3">
          <mxGeometry x="10" y="360" width="240" height="40" as="geometry" />
        </mxCell>
        <mxCell id="TNquvcSm8Xy5EXfFVT4R-2" value="" style="edgeStyle=orthogonalEdgeStyle;rounded=0;orthogonalLoop=1;jettySize=auto;html=1;" edge="1" parent="77e6c97f196da883-3" source="77e6c97f196da883-15" target="TNquvcSm8Xy5EXfFVT4R-1">
          <mxGeometry relative="1" as="geometry" />
        </mxCell>
        <mxCell id="77e6c97f196da883-4" value="rtp_rtcp" style="swimlane;html=1;startSize=20;" parent="77e6c97f196da883-1" vertex="1">
          <mxGeometry x="750" y="20" width="230" height="630" as="geometry" />
        </mxCell>
        <mxCell id="77e6c97f196da883-14" value="&lt;p class=&quot;p1&quot; style=&quot;margin: 0px ; font-stretch: normal ; font-size: 12px ; line-height: normal ; font-family: &amp;#34;menlo&amp;#34; ; color: rgb(28 , 70 , 74) ; background-color: rgb(255 , 255 , 255)&quot;&gt;RTPReceiver&lt;span class=&quot;s1&quot; style=&quot;color: rgba(0 , 0 , 0 , 0.85)&quot;&gt;::&lt;/span&gt;&lt;span class=&quot;s2&quot; style=&quot;color: rgb(15 , 104 , 160)&quot;&gt;Init&lt;/span&gt;&lt;span class=&quot;s1&quot; style=&quot;color: rgba(0 , 0 , 0 , 0.85)&quot;&gt;(){&lt;/span&gt;&lt;/p&gt;&lt;p class=&quot;p1&quot; style=&quot;margin: 0px ; font-stretch: normal ; font-size: 12px ; line-height: normal ; font-family: &amp;#34;menlo&amp;#34; ; color: rgb(28 , 70 , 74) ; background-color: rgb(255 , 255 , 255)&quot;&gt;&lt;span class=&quot;s1&quot; style=&quot;color: rgba(0 , 0 , 0 , 0.85)&quot;&gt;&lt;/span&gt;&lt;/p&gt;&lt;p class=&quot;p1&quot; style=&quot;margin: 0px ; font-stretch: normal ; font-size: 12px ; line-height: normal ; font-family: &amp;#34;menlo&amp;#34; ; color: rgb(28 , 70 , 74) ; background-color: rgb(255 , 255 , 255)&quot;&gt;Bitrate&lt;span class=&quot;s1&quot; style=&quot;color: rgba(0 , 0 , 0 , 0.85)&quot;&gt;::&lt;/span&gt;&lt;span class=&quot;s2&quot; style=&quot;color: rgb(15 , 104 , 160)&quot;&gt;Init&lt;/span&gt;&lt;span class=&quot;s1&quot; style=&quot;color: rgba(0 , 0 , 0 , 0.85)&quot;&gt;()&lt;/span&gt;&lt;/p&gt;&lt;p class=&quot;p1&quot; style=&quot;margin: 0px ; font-stretch: normal ; font-size: 12px ; line-height: normal ; font-family: &amp;#34;menlo&amp;#34; ; color: rgb(28 , 70 , 74) ; background-color: rgb(255 , 255 , 255)&quot;&gt;&lt;span class=&quot;s1&quot; style=&quot;color: rgba(0 , 0 , 0 , 0.85)&quot;&gt;&lt;/span&gt;&lt;/p&gt;&lt;p class=&quot;p1&quot; style=&quot;margin: 0px ; font-stretch: normal ; font-size: 12px ; line-height: normal ; font-family: &amp;#34;menlo&amp;#34; ; color: rgb(28 , 70 , 74) ; background-color: rgb(255 , 255 , 255)&quot;&gt;RTPReceiverAudio&lt;span class=&quot;s1&quot; style=&quot;color: rgba(0 , 0 , 0 , 0.85)&quot;&gt;::&lt;/span&gt;&lt;span class=&quot;s2&quot; style=&quot;color: rgb(15 , 104 , 160)&quot;&gt;Init&lt;/span&gt;&lt;span class=&quot;s1&quot; style=&quot;color: rgba(0 , 0 , 0 , 0.85)&quot;&gt;()&lt;/span&gt;&lt;/p&gt;&lt;p class=&quot;p1&quot; style=&quot;margin: 0px ; font-stretch: normal ; font-size: 12px ; line-height: normal ; font-family: &amp;#34;menlo&amp;#34; ; color: rgb(28 , 70 , 74) ; background-color: rgb(255 , 255 , 255)&quot;&gt;&lt;span class=&quot;s1&quot; style=&quot;color: rgba(0 , 0 , 0 , 0.85)&quot;&gt;}&lt;/span&gt;&lt;/p&gt;" style="rounded=1;whiteSpace=wrap;html=1;shadow=0;labelBackgroundColor=none;strokeWidth=1;fontFamily=Verdana;fontSize=8;align=left;" parent="77e6c97f196da883-4" vertex="1">
          <mxGeometry x="15" y="380" width="200" height="80" as="geometry" />
        </mxCell>
        <mxCell id="77e6c97f196da883-5" value="coding" style="swimlane;html=1;startSize=20;" parent="77e6c97f196da883-1" vertex="1">
          <mxGeometry x="980" y="20" width="250" height="630" as="geometry" />
        </mxCell>
        <mxCell id="77e6c97f196da883-19" value="&lt;p class=&quot;p1&quot; style=&quot;margin: 0px ; font-stretch: normal ; font-size: 12px ; line-height: normal ; font-family: &amp;#34;menlo&amp;#34; ; color: rgb(28 , 70 , 74) ; background-color: rgb(255 , 255 , 255)&quot;&gt;AudioCodingModule&lt;span class=&quot;s1&quot; style=&quot;color: rgba(0 , 0 , 0 , 0.85)&quot;&gt;::&lt;/span&gt;&lt;span class=&quot;s2&quot; style=&quot;color: rgb(15 , 104 , 160)&quot;&gt;Codec&lt;/span&gt;&lt;/p&gt;&lt;p class=&quot;p1&quot; style=&quot;margin: 0px ; font-stretch: normal ; font-size: 12px ; line-height: normal ; font-family: &amp;#34;menlo&amp;#34; ; color: rgb(28 , 70 , 74) ; background-color: rgb(255 , 255 , 255)&quot;&gt;&lt;span class=&quot;s2&quot; style=&quot;color: rgb(15 , 104 , 160)&quot;&gt;{&lt;/span&gt;&lt;span class=&quot;s1&quot; style=&quot;font-family: &amp;#34;menlo&amp;#34;&quot;&gt;ACMCodecDB&lt;/span&gt;&lt;span class=&quot;s2&quot; style=&quot;font-family: &amp;#34;menlo&amp;#34; ; color: rgba(0 , 0 , 0 , 0.85)&quot;&gt;::&lt;/span&gt;&lt;span style=&quot;color: rgb(50 , 109 , 116) ; font-family: &amp;#34;menlo&amp;#34;&quot;&gt;initACMCodecDB&lt;/span&gt;&lt;span class=&quot;s2&quot; style=&quot;font-family: &amp;#34;menlo&amp;#34; ; color: rgba(0 , 0 , 0 , 0.85)&quot;&gt;();&lt;/span&gt;&lt;span style=&quot;color: rgb(15 , 104 , 160)&quot;&gt;}&lt;/span&gt;&lt;/p&gt;" style="rounded=1;whiteSpace=wrap;html=1;shadow=0;labelBackgroundColor=none;strokeWidth=1;fontFamily=Verdana;fontSize=8;align=center;" parent="77e6c97f196da883-5" vertex="1">
          <mxGeometry x="12.5" y="520" width="225" height="70" as="geometry" />
        </mxCell>
        <mxCell id="77e6c97f196da883-35" style="edgeStyle=orthogonalEdgeStyle;rounded=1;html=1;labelBackgroundColor=none;startArrow=none;startFill=0;startSize=5;endArrow=classicThin;endFill=1;endSize=5;jettySize=auto;orthogonalLoop=1;strokeWidth=1;fontFamily=Verdana;fontSize=8;exitX=1.005;exitY=0.682;exitDx=0;exitDy=0;exitPerimeter=0;entryX=0;entryY=0.5;entryDx=0;entryDy=0;" parent="77e6c97f196da883-1" source="77e6c97f196da883-10" target="77e6c97f196da883-14" edge="1">
          <mxGeometry relative="1" as="geometry">
            <mxPoint x="1110" y="400" as="sourcePoint" />
          </mxGeometry>
        </mxCell>
        <mxCell id="TNquvcSm8Xy5EXfFVT4R-4" value="audio_processing" style="swimlane;html=1;startSize=20;" vertex="1" parent="77e6c97f196da883-1">
          <mxGeometry x="1230" y="20" width="250" height="630" as="geometry" />
        </mxCell>
        <mxCell id="TNquvcSm8Xy5EXfFVT4R-5" value="&lt;p class=&quot;p1&quot; style=&quot;margin: 0px ; font-stretch: normal ; font-size: 12px ; line-height: normal ; font-family: &amp;#34;menlo&amp;#34; ; color: rgb(28 , 70 , 74) ; background-color: rgb(255 , 255 , 255)&quot;&gt;&lt;br&gt;&lt;/p&gt;" style="rounded=1;whiteSpace=wrap;html=1;shadow=0;labelBackgroundColor=none;strokeWidth=1;fontFamily=Verdana;fontSize=8;align=center;" vertex="1" parent="TNquvcSm8Xy5EXfFVT4R-4">
          <mxGeometry x="12.5" y="580" width="225" height="40" as="geometry" />
        </mxCell>
        <mxCell id="TNquvcSm8Xy5EXfFVT4R-6" style="edgeStyle=orthogonalEdgeStyle;rounded=1;html=1;labelBackgroundColor=none;startArrow=none;startFill=0;startSize=5;endArrow=classicThin;endFill=1;endSize=5;jettySize=auto;orthogonalLoop=1;strokeWidth=1;fontFamily=Verdana;fontSize=8;exitX=0.996;exitY=0.894;exitDx=0;exitDy=0;exitPerimeter=0;entryX=0;entryY=0.75;entryDx=0;entryDy=0;" edge="1" parent="77e6c97f196da883-1" source="77e6c97f196da883-10" target="TNquvcSm8Xy5EXfFVT4R-5">
          <mxGeometry relative="1" as="geometry">
            <mxPoint x="470.8899999999999" y="578" as="sourcePoint" />
            <mxPoint x="1002.5" y="585" as="targetPoint" />
            <Array as="points">
              <mxPoint x="540" y="588" />
              <mxPoint x="540" y="630" />
            </Array>
          </mxGeometry>
        </mxCell>
      </root>
    </mxGraphModel>
  </diagram>
</mxfile>
